<?xml version="1.0" encoding="utf-8"?>
<!-- Generator: Adobe Illustrator 21.1.0, SVG Export Plug-In . SVG Version: 6.00 Build 0)  -->
<svg version="1.1"
	 id="svg2" inkscape:version="0.91 r13725" sodipodi:docname="Extension.svg" xmlns:cc="http://creativecommons.org/ns#" xmlns:dc="http://purl.org/dc/elements/1.1/" xmlns:inkscape="http://www.inkscape.org/namespaces/inkscape" xmlns:rdf="http://www.w3.org/1999/02/22-rdf-syntax-ns#" xmlns:sodipodi="http://sodipodi.sourceforge.net/DTD/sodipodi-0.dtd" xmlns:svg="http://www.w3.org/2000/svg"
	 xmlns="http://www.w3.org/2000/svg" xmlns:xlink="http://www.w3.org/1999/xlink" x="0px" y="0px" viewBox="0 0 70 70"
	 style="enable-background:new 0 0 70 70;" xml:space="preserve">
<style type="text/css">
	.st0{fill:#EA148C;}
	.st1{fill:#E51783;}
	.st2{fill:#FFFFFF;}
</style>
<rect class="st0" width="70" height="70"/>
<sodipodi:namedview  bordercolor="#666666" borderopacity="1" gridtolerance="10" guidetolerance="10" id="namedview4" inkscape:current-layer="g10" inkscape:cx="-38.327402" inkscape:cy="45.633698" inkscape:pageopacity="0" inkscape:pageshadow="2" inkscape:window-height="1088" inkscape:window-maximized="0" inkscape:window-width="1804" inkscape:window-x="0" inkscape:window-y="0" inkscape:zoom="2.5007407" objecttolerance="10" pagecolor="#ffffff" showgrid="false">
	</sodipodi:namedview>
<path class="st1" d="M25.7,49.8"/>
<g transform="translate(20.530997,-328.977)">
	<path class="st2" d="M14.5,337.7c-14.5,0-26.3,11.8-26.3,26.2c0,14.5,11.8,26.3,26.3,26.3c14.5,0,26.3-11.8,26.3-26.3
		C40.7,349.5,29,337.7,14.5,337.7L14.5,337.7z M-1.7,364c0-8.9,7.2-16.1,16.2-16.1c2.5,0,4.9,0.6,7,1.6L-0.1,371
		C-1.1,368.9-1.7,366.5-1.7,364z M14.5,380.1c-2.5,0-4.9-0.6-7-1.6L29,357c1,2.1,1.6,4.5,1.6,7C30.6,372.9,23.4,380.1,14.5,380.1
		L14.5,380.1z"/>
</g>
</svg>
